<svg xmlns="http://www.w3.org/2000/svg" width="20" height="20" fill="none" viewBox="0 0 20 20"><path stroke="#e31837" stroke-linecap="round" stroke-linejoin="round" stroke-width="2" d="M13.333 3.333H15A1.667 1.667 0 0 1 16.667 5v11.667A1.667 1.667 0 0 1 15 18.333H5a1.667 1.667 0 0 1-1.667-1.666V5A1.667 1.667 0 0 1 5 3.333h1.667M10 9.167h3.333M10 13.333h3.333M6.667 9.167h.008m-.008 4.166h.008M7.5 1.667h5c.46 0 .833.373.833.833v1.667c0 .46-.373.833-.833.833h-5a.833.833 0 0 1-.833-.833V2.5c0-.46.373-.833.833-.833"/></svg>