<svg xmlns="http://www.w3.org/2000/svg" width="20" height="20" fill="none" viewBox="0 0 20 20"><g clip-path="url(#a)"><path fill="#000" d="M6.25 6.667a.417.417 0 1 0 0-.834.417.417 0 0 0 0 .834"/><path stroke="#e31837" stroke-linecap="round" stroke-linejoin="round" stroke-width="2" d="M10.488 2.155a1.67 1.67 0 0 0-1.178-.488H3.333a1.667 1.667 0 0 0-1.666 1.666V9.31c0 .442.175.866.488 1.178l7.253 7.254a2.02 2.02 0 0 0 2.85 0l5.484-5.484a2.02 2.02 0 0 0 0-2.85z"/><path stroke="#e31837" stroke-linecap="round" stroke-linejoin="round" stroke-width="2" d="M6.25 6.667a.417.417 0 1 0 0-.834.417.417 0 0 0 0 .834"/></g><defs><clipPath id="a"><path fill="#fff" d="M0 0h20v20H0z"/></clipPath></defs></svg>